<?xml version="1.0" encoding="utf-8"?>
<svg xmlns="http://www.w3.org/2000/svg" xmlns:xlink="http://www.w3.org/1999/xlink" style="margin: auto; background: rgb(255, 255, 255); display: block; shape-rendering: auto; animation-play-state: running; animation-delay: 0s;" width="204px" height="204px" viewBox="0 0 100 100" preserveAspectRatio="xMidYMid">
<g transform="translate(50 50)" style="animation-play-state: running; animation-delay: 0s;">
<g style="animation-play-state: running; animation-delay: 0s;">
<animateTransform attributeName="transform" type="rotate" values="0;40" keyTimes="0;1" dur="0.36101083032490977s" repeatCount="indefinite" style="animation-play-state: running; animation-delay: 0s;"></animateTransform><path d="M31.22498999199199 -7 L38.22498999199199 -7 L38.22498999199199 7 L31.22498999199199 7 A32 32 0 0 1 28.419243337616944 14.708725577605795 L28.419243337616944 14.708725577605795 L33.78155443944979 19.20823884541157 L24.78252790383824 29.932861049077264 L19.420216802005392 25.43334778127149 A32 32 0 0 1 12.315816880863004 29.535074988173804 L12.315816880863004 29.535074988173804 L13.531354124531516 36.428729259259256 L-0.25595441763939153 38.859803746596285 L-1.4714916613079043 31.96614947551083 A32 32 0 0 1 -9.55031716950492 30.541634565979923 L-9.55031716950492 30.541634565979923 L-13.050317169504918 36.60381239247099 L-25.174672822487064 29.603812392470992 L-21.674672822487064 23.541634565979923 A32 32 0 0 1 -26.94775167630903 17.25742389790504 L-26.94775167630903 17.25742389790504 L-33.52560002181039 19.65156490118472 L-38.313882028369754 6.495868210181997 L-31.736033682868396 4.101727206902314 A32 32 0 0 1 -31.736033682868396 -4.101727206902306 L-31.736033682868396 -4.101727206902306 L-38.313882028369754 -6.495868210181987 L-33.52560002181039 -19.651564901184713 L-26.947751676309032 -17.25742389790503 A32 32 0 0 1 -21.67467282248708 -23.541634565979905 L-21.67467282248708 -23.541634565979905 L-25.174672822487082 -29.603812392470974 L-13.050317169504952 -36.60381239247098 L-9.550317169504948 -30.541634565979912 A32 32 0 0 1 -1.471491661307912 -31.96614947551083 L-1.471491661307912 -31.96614947551083 L-0.2559544176394024 -38.859803746596285 L13.531354124531493 -36.42872925925927 L12.315816880862984 -29.535074988173815 A32 32 0 0 1 19.420216802005392 -25.43334778127149 L19.420216802005392 -25.43334778127149 L24.782527903838236 -29.932861049077268 L33.78155443944978 -19.208238845411593 L28.419243337616933 -14.708725577605815 A32 32 0 0 1 31.22498999199199 -6.999999999999998 M0 -35A35 35 0 1 0 0 35 A35 35 0 1 0 0 -35" fill="#24b101" style="animation-play-state: running; animation-delay: 0s;"></path></g></g>
<!-- [ldio] generated by https://loading.io/ --></svg>